<?xml version="1.0" encoding="UTF-8" standalone="no"?>
<!DOCTYPE svg PUBLIC "-//W3C//DTD SVG 1.1//EN"
 "http://www.w3.org/Graphics/SVG/1.1/DTD/svg11.dtd">
<!-- Generated by graphviz version 2.43.0 (0)
 -->
<!-- Title: G Pages: 1 -->
<svg width="1190pt" height="423pt"
 viewBox="0.00 0.00 1190.00 423.00" xmlns="http://www.w3.org/2000/svg" xmlns:xlink="http://www.w3.org/1999/xlink">
<g id="graph0" class="graph" transform="scale(1 1) rotate(0) translate(4 419)">
<title>G</title>
<polygon fill="white" stroke="transparent" points="-4,4 -4,-419 1186,-419 1186,4 -4,4"/>
<g id="clust1" class="cluster">
<title>cluster_module.aws_machine</title>
<polygon fill="none" stroke="black" points="8,-8 8,-407 1174,-407 1174,-8 8,-8"/>
<text text-anchor="middle" x="591" y="-391.8" font-family="sans-serif" font-size="14.00">module.aws_machine</text>
</g>
<!-- module.aws_machine.aws_cloudwatch_log_group.ps_log_group -->
<g id="node1" class="node">
<title>module.aws_machine.aws_cloudwatch_log_group.ps_log_group</title>
<polygon fill="none" stroke="black" points="316,-214 16,-214 16,-178 316,-178 316,-214"/>
<text text-anchor="middle" x="166" y="-192.3" font-family="sans-serif" font-size="14.00">aws_cloudwatch_log_group.ps_log_group</text>
</g>
<!-- module.aws_machine.aws_cloudwatch_log_stream.ps_app_stream -->
<g id="node2" class="node">
<title>module.aws_machine.aws_cloudwatch_log_stream.ps_app_stream</title>
<polygon fill="none" stroke="black" points="730.5,-214 410.5,-214 410.5,-178 730.5,-178 730.5,-214"/>
<text text-anchor="middle" x="570.5" y="-192.3" font-family="sans-serif" font-size="14.00">aws_cloudwatch_log_stream.ps_app_stream</text>
</g>
<!-- module.aws_machine.aws_cloudwatch_log_stream.ps_app_stream&#45;&gt;module.aws_machine.aws_cloudwatch_log_group.ps_log_group -->
<g id="edge1" class="edge">
<title>module.aws_machine.aws_cloudwatch_log_stream.ps_app_stream&#45;&gt;module.aws_machine.aws_cloudwatch_log_group.ps_log_group</title>
<path fill="none" stroke="black" d="M410.42,-196C382.73,-196 353.92,-196 326.23,-196"/>
<polygon fill="black" stroke="black" points="326.08,-192.5 316.08,-196 326.08,-199.5 326.08,-192.5"/>
</g>
<!-- module.aws_machine.aws_cloudwatch_metric_alarm.cpu_alarm -->
<g id="node3" class="node">
<title>module.aws_machine.aws_cloudwatch_metric_alarm.cpu_alarm</title>
<polygon fill="none" stroke="black" points="1146.5,-376 844.5,-376 844.5,-340 1146.5,-340 1146.5,-376"/>
<text text-anchor="middle" x="995.5" y="-354.3" font-family="sans-serif" font-size="14.00">aws_cloudwatch_metric_alarm.cpu_alarm</text>
</g>
<!-- module.aws_machine.aws_sns_topic.alarm_notifications -->
<g id="node11" class="node">
<title>module.aws_machine.aws_sns_topic.alarm_notifications</title>
<polygon fill="none" stroke="black" points="695.5,-322 445.5,-322 445.5,-286 695.5,-286 695.5,-322"/>
<text text-anchor="middle" x="570.5" y="-300.3" font-family="sans-serif" font-size="14.00">aws_sns_topic.alarm_notifications</text>
</g>
<!-- module.aws_machine.aws_cloudwatch_metric_alarm.cpu_alarm&#45;&gt;module.aws_machine.aws_sns_topic.alarm_notifications -->
<g id="edge2" class="edge">
<title>module.aws_machine.aws_cloudwatch_metric_alarm.cpu_alarm&#45;&gt;module.aws_machine.aws_sns_topic.alarm_notifications</title>
<path fill="none" stroke="black" d="M858.55,-340C835.35,-336.97 811.49,-333.87 789,-331 762.11,-327.56 733.34,-323.95 705.82,-320.52"/>
<polygon fill="black" stroke="black" points="706.09,-317.03 695.74,-319.27 705.23,-323.98 706.09,-317.03"/>
</g>
<!-- module.aws_machine.aws_cloudwatch_metric_alarm.memory_alarm -->
<g id="node4" class="node">
<title>module.aws_machine.aws_cloudwatch_metric_alarm.memory_alarm</title>
<polygon fill="none" stroke="black" points="1162.5,-322 828.5,-322 828.5,-286 1162.5,-286 1162.5,-322"/>
<text text-anchor="middle" x="995.5" y="-300.3" font-family="sans-serif" font-size="14.00">aws_cloudwatch_metric_alarm.memory_alarm</text>
</g>
<!-- module.aws_machine.aws_cloudwatch_metric_alarm.memory_alarm&#45;&gt;module.aws_machine.aws_sns_topic.alarm_notifications -->
<g id="edge3" class="edge">
<title>module.aws_machine.aws_cloudwatch_metric_alarm.memory_alarm&#45;&gt;module.aws_machine.aws_sns_topic.alarm_notifications</title>
<path fill="none" stroke="black" d="M828.23,-304C787.67,-304 744.78,-304 705.92,-304"/>
<polygon fill="black" stroke="black" points="705.6,-300.5 695.6,-304 705.6,-307.5 705.6,-300.5"/>
</g>
<!-- module.aws_machine.aws_iam_instance_profile.cloudwatch_agent_profile -->
<g id="node5" class="node">
<title>module.aws_machine.aws_iam_instance_profile.cloudwatch_agent_profile</title>
<polygon fill="none" stroke="black" points="756,-268 385,-268 385,-232 756,-232 756,-268"/>
<text text-anchor="middle" x="570.5" y="-246.3" font-family="sans-serif" font-size="14.00">aws_iam_instance_profile.cloudwatch_agent_profile</text>
</g>
<!-- module.aws_machine.aws_iam_role.cloudwatch_agent_role -->
<g id="node7" class="node">
<title>module.aws_machine.aws_iam_role.cloudwatch_agent_role</title>
<polygon fill="none" stroke="black" points="301,-322 31,-322 31,-286 301,-286 301,-322"/>
<text text-anchor="middle" x="166" y="-300.3" font-family="sans-serif" font-size="14.00">aws_iam_role.cloudwatch_agent_role</text>
</g>
<!-- module.aws_machine.aws_iam_instance_profile.cloudwatch_agent_profile&#45;&gt;module.aws_machine.aws_iam_role.cloudwatch_agent_role -->
<g id="edge4" class="edge">
<title>module.aws_machine.aws_iam_instance_profile.cloudwatch_agent_profile&#45;&gt;module.aws_machine.aws_iam_role.cloudwatch_agent_role</title>
<path fill="none" stroke="black" d="M420.86,-268.02C397.79,-270.94 374.25,-274 352,-277 334.49,-279.36 316.07,-281.94 297.91,-284.54"/>
<polygon fill="black" stroke="black" points="297.26,-281.1 287.86,-285.98 298.25,-288.03 297.26,-281.1"/>
</g>
<!-- module.aws_machine.aws_iam_policy_attachment.cloudwatch_agent_policy_attach -->
<g id="node6" class="node">
<title>module.aws_machine.aws_iam_policy_attachment.cloudwatch_agent_policy_attach</title>
<polygon fill="none" stroke="black" points="789,-376 352,-376 352,-340 789,-340 789,-376"/>
<text text-anchor="middle" x="570.5" y="-354.3" font-family="sans-serif" font-size="14.00">aws_iam_policy_attachment.cloudwatch_agent_policy_attach</text>
</g>
<!-- module.aws_machine.aws_iam_policy_attachment.cloudwatch_agent_policy_attach&#45;&gt;module.aws_machine.aws_iam_role.cloudwatch_agent_role -->
<g id="edge5" class="edge">
<title>module.aws_machine.aws_iam_policy_attachment.cloudwatch_agent_policy_attach&#45;&gt;module.aws_machine.aws_iam_role.cloudwatch_agent_role</title>
<path fill="none" stroke="black" d="M420.86,-339.98C397.79,-337.06 374.25,-334 352,-331 334.49,-328.64 316.07,-326.06 297.91,-323.46"/>
<polygon fill="black" stroke="black" points="298.25,-319.97 287.86,-322.02 297.26,-326.9 298.25,-319.97"/>
</g>
<!-- module.aws_machine.aws_instance.webserver -->
<g id="node8" class="node">
<title>module.aws_machine.aws_instance.webserver</title>
<polygon fill="none" stroke="black" points="1088.5,-187 902.5,-187 902.5,-151 1088.5,-151 1088.5,-187"/>
<text text-anchor="middle" x="995.5" y="-165.3" font-family="sans-serif" font-size="14.00">aws_instance.webserver</text>
</g>
<!-- module.aws_machine.aws_instance.webserver&#45;&gt;module.aws_machine.aws_cloudwatch_log_stream.ps_app_stream -->
<g id="edge6" class="edge">
<title>module.aws_machine.aws_instance.webserver&#45;&gt;module.aws_machine.aws_cloudwatch_log_stream.ps_app_stream</title>
<path fill="none" stroke="black" d="M902.45,-174.88C855.21,-177.89 796.13,-181.66 741.01,-185.18"/>
<polygon fill="black" stroke="black" points="740.53,-181.7 730.77,-185.83 740.97,-188.69 740.53,-181.7"/>
</g>
<!-- module.aws_machine.aws_instance.webserver&#45;&gt;module.aws_machine.aws_iam_instance_profile.cloudwatch_agent_profile -->
<g id="edge7" class="edge">
<title>module.aws_machine.aws_instance.webserver&#45;&gt;module.aws_machine.aws_iam_instance_profile.cloudwatch_agent_profile</title>
<path fill="none" stroke="black" d="M934.29,-187.09C893.59,-198.76 838.44,-213.48 789,-223 775.04,-225.69 760.51,-228.17 745.89,-230.44"/>
<polygon fill="black" stroke="black" points="745.12,-227.02 735.76,-231.98 746.17,-233.94 745.12,-227.02"/>
</g>
<!-- module.aws_machine.aws_key_pair.ec2_keypair -->
<g id="node9" class="node">
<title>module.aws_machine.aws_key_pair.ec2_keypair</title>
<polygon fill="none" stroke="black" points="667.5,-106 473.5,-106 473.5,-70 667.5,-70 667.5,-106"/>
<text text-anchor="middle" x="570.5" y="-84.3" font-family="sans-serif" font-size="14.00">aws_key_pair.ec2_keypair</text>
</g>
<!-- module.aws_machine.aws_instance.webserver&#45;&gt;module.aws_machine.aws_key_pair.ec2_keypair -->
<g id="edge8" class="edge">
<title>module.aws_machine.aws_instance.webserver&#45;&gt;module.aws_machine.aws_key_pair.ec2_keypair</title>
<path fill="none" stroke="black" d="M934.29,-150.91C893.59,-139.24 838.44,-124.52 789,-115 753.12,-108.09 713.56,-102.57 678.12,-98.36"/>
<polygon fill="black" stroke="black" points="678.1,-94.83 667.76,-97.15 677.29,-101.79 678.1,-94.83"/>
</g>
<!-- module.aws_machine.aws_security_group.ps_sg -->
<g id="node10" class="node">
<title>module.aws_machine.aws_security_group.ps_sg</title>
<polygon fill="none" stroke="black" points="669,-160 472,-160 472,-124 669,-124 669,-160"/>
<text text-anchor="middle" x="570.5" y="-138.3" font-family="sans-serif" font-size="14.00">aws_security_group.ps_sg</text>
</g>
<!-- module.aws_machine.aws_instance.webserver&#45;&gt;module.aws_machine.aws_security_group.ps_sg -->
<g id="edge9" class="edge">
<title>module.aws_machine.aws_instance.webserver&#45;&gt;module.aws_machine.aws_security_group.ps_sg</title>
<path fill="none" stroke="black" d="M902.45,-163.12C836.78,-158.93 748.25,-153.28 679.28,-148.88"/>
<polygon fill="black" stroke="black" points="679.45,-145.38 669.25,-148.24 679,-152.37 679.45,-145.38"/>
</g>
<!-- module.aws_machine.tls_private_key.ec2_key -->
<g id="node14" class="node">
<title>module.aws_machine.tls_private_key.ec2_key</title>
<polygon fill="none" stroke="black" points="254.5,-79 77.5,-79 77.5,-43 254.5,-43 254.5,-79"/>
<text text-anchor="middle" x="166" y="-57.3" font-family="sans-serif" font-size="14.00">tls_private_key.ec2_key</text>
</g>
<!-- module.aws_machine.aws_key_pair.ec2_keypair&#45;&gt;module.aws_machine.tls_private_key.ec2_key -->
<g id="edge10" class="edge">
<title>module.aws_machine.aws_key_pair.ec2_keypair&#45;&gt;module.aws_machine.tls_private_key.ec2_key</title>
<path fill="none" stroke="black" d="M473.35,-81.55C410.33,-77.32 328.19,-71.81 264.84,-67.56"/>
<polygon fill="black" stroke="black" points="265.05,-64.07 254.84,-66.89 264.58,-71.05 265.05,-64.07"/>
</g>
<!-- module.aws_machine.aws_sns_topic_subscription.email_subscription -->
<g id="node12" class="node">
<title>module.aws_machine.aws_sns_topic_subscription.email_subscription</title>
<polygon fill="none" stroke="black" points="1166,-268 825,-268 825,-232 1166,-232 1166,-268"/>
<text text-anchor="middle" x="995.5" y="-246.3" font-family="sans-serif" font-size="14.00">aws_sns_topic_subscription.email_subscription</text>
</g>
<!-- module.aws_machine.aws_sns_topic_subscription.email_subscription&#45;&gt;module.aws_machine.aws_sns_topic.alarm_notifications -->
<g id="edge11" class="edge">
<title>module.aws_machine.aws_sns_topic_subscription.email_subscription&#45;&gt;module.aws_machine.aws_sns_topic.alarm_notifications</title>
<path fill="none" stroke="black" d="M858.55,-268C835.35,-271.03 811.49,-274.13 789,-277 762.11,-280.44 733.34,-284.05 705.82,-287.48"/>
<polygon fill="black" stroke="black" points="705.23,-284.02 695.74,-288.73 706.09,-290.97 705.23,-284.02"/>
</g>
<!-- module.aws_machine.local_file.ec2_private_key -->
<g id="node13" class="node">
<title>module.aws_machine.local_file.ec2_private_key</title>
<polygon fill="none" stroke="black" points="666,-52 475,-52 475,-16 666,-16 666,-52"/>
<text text-anchor="middle" x="570.5" y="-30.3" font-family="sans-serif" font-size="14.00">local_file.ec2_private_key</text>
</g>
<!-- module.aws_machine.local_file.ec2_private_key&#45;&gt;module.aws_machine.tls_private_key.ec2_key -->
<g id="edge12" class="edge">
<title>module.aws_machine.local_file.ec2_private_key&#45;&gt;module.aws_machine.tls_private_key.ec2_key</title>
<path fill="none" stroke="black" d="M474.88,-40.35C411.68,-44.59 328.76,-50.15 264.89,-54.43"/>
<polygon fill="black" stroke="black" points="264.56,-50.95 254.81,-55.11 265.03,-57.93 264.56,-50.95"/>
</g>
</g>
</svg>
